<svg xmlns="http://www.w3.org/2000/svg" xmlns:xlink="http://www.w3.org/1999/xlink" version="1.1" id="Gartner_Blue" x="0px" y="0px" style="enable-background:new 0 0 72 56;" xml:space="preserve" viewBox="8 0 56 56">
<path style="fill:#002856;" d="M36,56C20.536,56,8,43.464,8,28S20.536,0,36,0s28,12.536,28,28S51.464,56,36,56z M36,53.395  c14.025,0,25.395-11.37,25.395-25.395S50.025,2.605,36,2.605S10.605,13.975,10.605,28S21.975,53.395,36,53.395z M29.945,23.415  h2.676v-2.602c0-1.147,0.03-2.917,0.863-4.012c0.878-1.162,2.082-1.951,4.154-1.951c3.377,0,4.799,0.482,4.799,0.482l-0.668,3.967  c0,0-1.116-0.323-2.157-0.323c-1.042,0-1.974,0.374-1.974,1.414v3.025h4.269l-0.297,3.874h-3.972v13.46h-5.018v-13.46h-2.676V23.415  z"/>
</svg>