<svg xmlns="http://www.w3.org/2000/svg" id="ICONS" viewBox="9.4 1.4 53.2 53.2">
  <defs>
    <style>
      .cls-1 {
        fill: #002856;
        stroke-width: 0px;
      }
    </style>
  </defs>
  <path class="cls-1" d="m36,3.9c13.29,0,24.1,10.81,24.1,24.1s-10.81,24.1-24.1,24.1-24.1-10.81-24.1-24.1S22.71,3.9,36,3.9m0-2.5c-14.69,0-26.6,11.91-26.6,26.6s11.91,26.6,26.6,26.6,26.6-11.91,26.6-26.6S50.69,1.4,36,1.4h0Z"/>
  <g id="layer1">
    <g id="path1009">
      <path class="cls-1" d="m48.34,15.27h-2.38l-8.52,9.2-6.88-9.2h-8.09l10.5,14.04-10.57,11.42h2.38l9.25-9.99,7.48,9.99h8.09l-11.09-14.83,9.84-10.63h0Zm-5.96,23.7l-16.42-21.95h3.72l16.42,21.95h-3.72Z"/>
    </g>
  </g>
</svg>