<svg xmlns="http://www.w3.org/2000/svg" xmlns:xlink="http://www.w3.org/1999/xlink" version="1.1" id="Gartner_Blue" x="0px" y="0px" style="enable-background:new 0 0 72 56;" xml:space="preserve" viewBox="8 0 56 56">
<path style="fill:#002856;" d="M36,56C20.536,56,8,43.464,8,28S20.536,0,36,0s28,12.536,28,28S51.464,56,36,56z M36,53.395  c14.025,0,25.395-11.37,25.395-25.395S50.025,2.605,36,2.605S10.605,13.975,10.605,28S21.975,53.395,36,53.395z M23.255,39.435  h5.263V22.594h-5.263V39.435z M25.752,20.485h-0.038c-1.904,0-3.139-1.287-3.139-2.917c0-1.664,1.271-2.925,3.214-2.925  c1.94,0,3.135,1.257,3.172,2.92C28.962,19.193,27.73,20.485,25.752,20.485z M49.57,39.435h-5.967V30.72  c0-2.282-0.931-3.838-2.985-3.838c-1.569,0-2.442,1.05-2.848,2.063c-0.152,0.362-0.129,0.867-0.129,1.377v9.114H31.73  c0,0,0.077-15.439,0-16.842h5.911v2.642c0.349-1.156,2.237-2.807,5.252-2.807c3.739,0,6.677,2.424,6.677,7.641V39.435z"/>
</svg>