<svg xmlns="http://www.w3.org/2000/svg" xmlns:xlink="http://www.w3.org/1999/xlink" version="1.1" id="Gartner_Blue" x="0px" y="0px" style="enable-background:new 0 0 72 56;" xml:space="preserve" viewBox="8 0 56 56">
<path style="fill:#002856;" d="M36,56C20.536,56,8,43.464,8,28S20.536,0,36,0s28,12.536,28,28S51.464,56,36,56z M36,53.395  c14.025,0,25.395-11.37,25.395-25.395S50.025,2.605,36,2.605S10.605,13.975,10.605,28S21.975,53.395,36,53.395z M24.289,31.78  v-7.932c0.012-0.069,0.033-0.138,0.034-0.207c0.029-0.945,0.069-1.891,0.305-2.814c0.522-2.05,1.719-3.537,3.676-4.375  c1.123-0.479,2.314-0.607,3.521-0.633c0.18-0.004,0.359-0.031,0.539-0.047h7.934c0.068,0.012,0.137,0.027,0.206,0.034  c0.791,0.07,1.595,0.072,2.372,0.219c2.596,0.492,4.324,1.995,5.092,4.549c0.344,1.14,0.37,2.322,0.385,3.497  c0.029,2.093,0.023,4.188,0.017,6.281c-0.004,1.344,0.018,2.695-0.244,4.019c-0.508,2.571-1.987,4.294-4.52,5.069  c-1.125,0.344-2.288,0.387-3.447,0.395c-2.666,0.021-5.333,0.001-8-0.016c-0.947-0.007-1.891-0.065-2.814-0.3  c-2.05-0.522-3.537-1.719-4.375-3.676c-0.481-1.123-0.608-2.314-0.634-3.521C24.332,32.14,24.306,31.961,24.289,31.78   M46.163,27.821c0.007,0,0.012,0,0.017,0c0-1.011,0.026-2.023-0.007-3.033c-0.033-1.024-0.046-2.058-0.202-3.066  c-0.283-1.81-1.334-2.998-3.136-3.472c-0.972-0.257-1.97-0.262-2.961-0.273c-2.189-0.026-4.378-0.03-6.568-0.003  c-1.024,0.013-2.058,0.043-3.067,0.201c-1.809,0.283-2.997,1.332-3.472,3.135c-0.255,0.973-0.262,1.97-0.273,2.961  c-0.026,2.189-0.03,4.38-0.003,6.569c0.013,1.024,0.043,2.058,0.201,3.066c0.283,1.81,1.334,2.998,3.136,3.472  c0.972,0.257,1.97,0.262,2.961,0.273c2.189,0.026,4.378,0.03,6.568,0.003c1.024-0.013,2.058-0.044,3.067-0.201  c1.745-0.27,2.926-1.265,3.434-2.997c0.262-0.897,0.281-1.822,0.298-2.743C46.181,30.416,46.163,29.119,46.163,27.821   M36.322,21.615c3.424-0.001,6.209,2.784,6.208,6.207c-0.003,3.407-2.791,6.191-6.202,6.19c-3.408,0-6.196-2.788-6.196-6.195  C30.134,24.405,32.917,21.615,36.322,21.615 M36.346,23.812c-2.207-0.001-4.014,1.784-4.016,3.968  c-0.001,2.227,1.778,4.033,3.975,4.035c2.223,0.001,4.028-1.78,4.029-3.98C40.335,25.615,38.549,23.813,36.346,23.812   M44.212,21.381c-0.001-0.805-0.651-1.448-1.461-1.447c-0.804,0.001-1.449,0.652-1.447,1.46c0.001,0.806,0.652,1.451,1.461,1.448  C43.571,22.838,44.213,22.189,44.212,21.381"/>
</svg>