<svg xmlns="http://www.w3.org/2000/svg" xmlns:xlink="http://www.w3.org/1999/xlink" version="1.1" id="Gartner_Blue" x="0px" y="0px" style="enable-background:new 0 0 72 56;" xml:space="preserve" viewBox="7.96 0.13 55.96 55.96">
<path style="fill:#002856;" d="M35.939,0.128c-15.454,0-27.981,12.528-27.981,27.981c0,15.454,12.528,27.981,27.981,27.981  c15.453,0,27.981-12.528,27.981-27.981C63.92,12.655,51.392,0.128,35.939,0.128z M35.939,53.487  c-14.016,0-25.378-11.362-25.378-25.378S21.923,2.731,35.939,2.731c14.016,0,25.378,11.362,25.378,25.378  S49.954,53.487,35.939,53.487z M44.24,19.156H27.182c0,0-4.484,0-4.484,4.486v9.306c0,0,0,4.485,4.484,4.485H44.24  c0,0,4.487,0,4.487-4.485v-9.306C48.727,23.641,48.727,19.156,44.24,19.156z M32.244,33.313V23.301l8.522,5.006L32.244,33.313z"/>
</svg>